<?xml version="1.0" encoding="UTF-8" standalone="no"?>
<svg
   xmlns:dc="http://purl.org/dc/elements/1.1/"
   xmlns:cc="http://creativecommons.org/ns#"
   xmlns:rdf="http://www.w3.org/1999/02/22-rdf-syntax-ns#"
   xmlns:svg="http://www.w3.org/2000/svg"
   xmlns="http://www.w3.org/2000/svg"
   xmlns:sodipodi="http://sodipodi.sourceforge.net/DTD/sodipodi-0.dtd"
   xmlns:inkscape="http://www.inkscape.org/namespaces/inkscape"
   width="120"
   height="120"
   viewBox="0 0 31.749999 31.750001"
   version="1.1"
   id="svg16"
   inkscape:version="1.0.1 (3bc2e813f5, 2020-09-07)"
   sodipodi:docname="fav.svg">
  <defs
     id="defs10">
    <inkscape:path-effect
       effect="powerstroke"
       id="path-effect107"
       is_visible="true"
       lpeversion="1"
       offset_points="0,0.1322915"
       sort_points="true"
       interpolator_type="CubicBezierJohan"
       interpolator_beta="0.2"
       start_linecap_type="zerowidth"
       linejoin_type="extrp_arc"
       miter_limit="4"
       scale_width="1"
       end_linecap_type="zerowidth" />
    <inkscape:path-effect
       effect="powerstroke"
       id="path-effect103"
       is_visible="true"
       lpeversion="1"
       offset_points="4,0.1322915"
       sort_points="true"
       interpolator_type="CubicBezierJohan"
       interpolator_beta="0.2"
       start_linecap_type="zerowidth"
       linejoin_type="extrp_arc"
       miter_limit="4"
       scale_width="1"
       end_linecap_type="zerowidth" />
    <inkscape:path-effect
       effect="skeletal"
       id="path-effect99"
       is_visible="true"
       lpeversion="1"
       pattern="M 0,5 C 0,2.24 2.24,0 5,0 7.76,0 10,2.24 10,5 10,7.76 7.76,10 5,10 2.24,10 0,7.76 0,5 Z"
       copytype="single_stretched"
       prop_scale="1"
       scale_y_rel="false"
       spacing="0"
       normal_offset="0"
       tang_offset="0"
       prop_units="false"
       vertical_pattern="false"
       hide_knot="false"
       fuse_tolerance="0" />
    <inkscape:path-effect
       effect="powerstroke"
       id="path-effect95"
       is_visible="true"
       lpeversion="1"
       offset_points="0,0.1322915"
       sort_points="true"
       interpolator_type="CubicBezierJohan"
       interpolator_beta="0.2"
       start_linecap_type="zerowidth"
       linejoin_type="extrp_arc"
       miter_limit="4"
       scale_width="1"
       end_linecap_type="zerowidth" />
  </defs>
  <sodipodi:namedview
     id="base"
     pagecolor="#ffffff"
     bordercolor="#666666"
     borderopacity="1.0"
     inkscape:pageopacity="0.0"
     inkscape:pageshadow="2"
     inkscape:zoom="7.9195959"
     inkscape:cx="67.003428"
     inkscape:cy="78.459918"
     inkscape:document-units="mm"
     inkscape:current-layer="layer3"
     inkscape:document-rotation="0"
     showgrid="false"
     units="px"
     inkscape:pagecheckerboard="true"
     inkscape:window-width="1920"
     inkscape:window-height="1017"
     inkscape:window-x="-8"
     inkscape:window-y="-8"
     inkscape:window-maximized="1" />
  <metadata
     id="metadata13">
    <rdf:RDF>
      <cc:Work
         rdf:about="">
        <dc:format>image/svg+xml</dc:format>
        <dc:type
           rdf:resource="http://purl.org/dc/dcmitype/StillImage" />
        <dc:title></dc:title>
      </cc:Work>
    </rdf:RDF>
  </metadata>
  <g
     inkscape:groupmode="layer"
     id="layer3"
     inkscape:label="Layer 2">
    <path
       style="fill:#be4f46;stroke:none;stroke-width:0.264583px;stroke-linecap:butt;stroke-linejoin:miter;stroke-opacity:1;fill-opacity:1"
       d="m 14.633006,30.769404 c -0.159256,-0.04596 -0.381285,0.0613 -0.534539,0 -0.02924,-0.0117 -0.03757,-0.05512 -0.06682,-0.06682 -0.07791,-0.03116 -0.187558,0.02657 -0.26727,0 -0.07817,-0.02606 -0.177487,-0.08227 -0.267269,-0.100225 -0.04368,-0.0087 -0.09657,0.02471 -0.133635,0 -0.08369,-0.0558 -0.103599,-0.06794 -0.200452,-0.100226 -0.134864,-0.04496 -0.34211,0.06281 -0.467722,0 -0.104911,-0.05246 -0.223941,0.0033 -0.334087,-0.03341 -0.173964,-0.05799 -0.359125,-0.04175 -0.534539,-0.100227 -0.02113,-0.007 -0.0469,0.0099 -0.06682,0 -0.06534,-0.03267 -0.137543,-0.108471 -0.200452,-0.133633 -0.03102,-0.01241 -0.06921,0.01241 -0.100226,0 -0.02924,-0.01169 -0.03757,-0.05512 -0.06682,-0.06682 -0.03102,-0.01241 -0.06682,0 -0.100226,0 -0.05568,-0.02228 -0.113404,-0.04 -0.167043,-0.06682 -0.142445,-0.07122 -0.260799,-0.197218 -0.400904,-0.267269 -0.107104,-0.05355 -0.406146,-0.157874 -0.501131,-0.233862 -0.05423,-0.04339 -0.4897024,-0.344639 -0.50113,-0.367496 -0.052928,-0.105855 0.069136,-0.03109 -0.033409,-0.133633 -0.417735,-0.417735 0.010832,0.01836 -0.2672696,-0.167045 -0.1095084,-0.073 -0.1829554,-0.241816 -0.3006781,-0.300678 -0.01992,-0.0099 -0.051068,0.01574 -0.066817,0 -0.015748,-0.01574 0.015748,-0.05107 0,-0.06682 -0.015748,-0.01574 -0.045688,0.007 -0.066818,0 -0.02173,-0.0073 -0.1548125,-0.08392 -0.1670434,-0.100225 -0.02113,-0.02817 -0.00851,-0.07533 -0.033409,-0.100226 -0.019288,-0.01929 -0.1452015,-0.07839 -0.1670433,-0.100227 -0.017608,-0.0176 -0.022273,-0.04455 -0.033409,-0.06682 -0.033409,-0.04454 -0.05795,-0.0974 -0.1002263,-0.133633 -0.037813,-0.03241 -0.098419,-0.0316 -0.1336347,-0.06682 -0.035216,-0.03522 -0.041194,-0.09093 -0.066817,-0.133636 0.00624,-0.06878 -0.051262,-0.01397 -0.066817,-0.03341 -0.059844,-0.0748 -0.1139047,-0.154151 -0.1670436,-0.23386 -0.054169,-0.08125 -0.064441,-0.175011 -0.1336347,-0.267269 -0.014941,-0.01992 -0.046896,-0.01847 -0.066817,-0.03341 -0.1322441,-0.09918 -0.00214,-0.03554 -0.1336347,-0.167045 C 7.6114668,27.021917 7.5044876,26.9153 7.3833206,26.827178 7.3229048,26.783239 7.2440685,26.769793 7.1828686,26.726951 6.7844936,26.44809 6.4302205,25.872173 6.2808339,25.424014 6.2409194,25.304271 6.1527909,25.206928 6.1137905,25.089927 c -0.026961,-0.08088 -0.00151,-0.187493 -0.033409,-0.26727 -0.014912,-0.03728 -0.051001,-0.06332 -0.066817,-0.100226 -0.045799,-0.106865 -0.055509,-0.226765 -0.100226,-0.334087 -0.028732,-0.06896 -0.073409,-0.130727 -0.100226,-0.200452 -0.027191,-0.0707 -0.057303,-0.28165 -0.100226,-0.367496 -0.02041,-0.04082 -0.056332,-0.09169 -0.066817,-0.133635 -0.036581,-0.146324 0,-0.351772 0,-0.50113 0,-0.133635 -0.035162,-0.271978 0,-0.400904 0.00713,-0.02616 0.2087118,-0.530224 0.2338607,-0.567948 0.094916,-0.142374 0.228196,-0.271228 0.3006784,-0.434313 0.1911913,-0.43018 0.3030918,-0.897335 0.4677216,-1.336347 0.092942,-0.247847 0.2035067,-0.506476 0.3340868,-0.734992 0.027626,-0.04834 0.075325,-0.08383 0.100226,-0.133634 0.020534,-0.04107 0.015322,-0.09143 0.033409,-0.133635 0.015817,-0.03691 0.044545,-0.06682 0.066817,-0.100226 0.022273,-0.04454 0.048321,-0.08739 0.066817,-0.133635 0.026157,-0.06539 0.037672,-0.136333 0.066817,-0.200452 0.05374,-0.118229 0.1382639,-0.220075 0.2004521,-0.334087 0.140762,-0.258063 0.2363147,-0.539447 0.3674956,-0.801808 0.2349601,-0.46992 -0.048006,0.149113 0.233861,-0.334087 0.2670387,-0.623091 -0.06939,0.104513 0.2338607,-0.400905 0.090822,-0.15137 0.149402,-0.344278 0.233861,-0.50113 0.096922,-0.179998 0.1872784,-0.36444 0.300678,-0.534539 0.1307254,-0.196088 0.3030525,-0.371057 0.4343131,-0.567948 0.1292624,-0.193893 0.2372344,-0.370869 0.4009043,-0.534539 0.1768869,-0.176887 0.3665802,-0.0331 0.5679482,-0.100226 0.315754,-0.105251 0.864201,0.04287 1.169304,-0.03341 0.157324,-0.03933 0.277022,-0.145373 0.400904,-0.233861 0.08105,-0.05789 0.186217,-0.07574 0.26727,-0.133634 0.03845,-0.02746 0.0592,-0.07678 0.100226,-0.100226 0.03987,-0.02278 0.09257,-0.01287 0.133634,-0.03341 0.144517,-0.07226 0.274274,-0.172297 0.400905,-0.26727 0.399381,-0.299536 -0.06033,0.07947 0.334087,-0.167043 0.06739,-0.04212 0.234835,-0.177424 0.300678,-0.233861 0.206825,-0.177279 0.349439,-0.431609 0.467721,-0.668174 0.129014,-0.258027 -0.0087,0.07845 0.200453,-0.200452 0.03598,-0.04798 0.03503,-0.116188 0.06682,-0.167043 0.02504,-0.04007 0.07518,-0.06016 0.100226,-0.100226 0.03179,-0.05085 0.03503,-0.116189 0.06682,-0.167044 0.0461,-0.07376 0.161555,-0.08925 0.200452,-0.167043 0.01992,-0.03984 -0.01564,-0.09193 0,-0.133635 0.06196,-0.165225 0.277446,-0.364617 0.334087,-0.534539 0.01056,-0.03169 -0.01173,-0.06894 0,-0.100226 0.07248,-0.19327 0.212222,-0.344448 0.334087,-0.501131 0.07973,-0.102512 0.12253,-0.230191 0.200452,-0.334086 0.195323,-0.260431 -0.0032,0.07052 0.233861,-0.200453 0.04276,-0.04887 0.05709,-0.11851 0.100226,-0.167043 0.157278,-0.176938 0.174608,-0.105269 0.367495,-0.233861 0.03931,-0.026207 0.0592,-0.076785 0.100226,-0.100226 0.120174,-0.06867 0.365278,-0.1142272 0.501131,-0.1336347 0.153899,-0.021987 0.06544,-0.00138 0.167043,0.1002261 0.02839,0.028392 0.07795,0.033409 0.100226,0.066817 0.02547,0.038204 0.01532,0.091431 0.03341,0.1336356 0.03163,0.07381 0.10381,0.125891 0.133635,0.200452 0.02807,0.07018 0.02916,0.158548 0.06682,0.233861 0.06509,0.130184 0.169344,0.238461 0.233861,0.367495 0.01575,0.0315 0.0085,0.07532 0.03341,0.100226 0.0249,0.0249 0.07532,0.0085 0.100226,0.03341 0.03521,0.03522 0.03493,0.09538 0.06682,0.133635 0.0257,0.03085 0.07183,0.03843 0.100226,0.06682 0.01761,0.01761 0.01959,0.0461 0.03341,0.06682 0.07213,0.108194 -0.0042,-0.0139 0.06682,0.03341 0.0514,0.03427 0.08224,0.09937 0.133635,0.133635 0.07872,0.05248 0.184189,0.07253 0.267269,0.100226 0.03838,0.01279 0.04635,0.07976 0.06682,0.100226 0.03522,0.03522 0.09379,0.03694 0.133635,0.06682 0.132243,0.09918 0.0021,0.03554 0.133634,0.167044 0.157707,0.157707 0.03742,-0.0085 0.200452,0.100226 0.0431,0.02873 0.268738,0.227344 0.300679,0.267269 0.022,0.0275 0.0085,0.07532 0.03341,0.100226 0.0249,0.0249 0.07003,0.01529 0.100226,0.03341 0.117299,0.07038 0.212548,0.196371 0.334087,0.26727 0.442737,0.258262 0.922551,0.470874 1.236122,0.902034 0.04394,0.06042 0.05879,0.138295 0.100226,0.200452 0.02621,0.03931 0.07679,0.05921 0.100226,0.100226 0.0494,0.08644 0.03721,0.211864 0.06682,0.300679 0.03025,0.09075 0.09862,0.204378 0.133635,0.300678 0.04887,0.134388 0.07358,0.302198 0.133635,0.434313 0.0051,0.01131 0.260596,0.494457 0.267269,0.50113 0.06828,0.06828 0.117452,0.05098 0.167044,0.133635 0.08953,0.149214 0.137502,0.271138 0.267269,0.400905 0.198888,0.198888 0.479301,0.301009 0.701583,0.467721 0.01992,0.01494 0.01114,0.05568 0.03341,0.06682 0.01992,0.01 0.04829,-0.01235 0.06682,0 0.02072,0.01381 0.01847,0.0469 0.03341,0.06682 0.04755,0.06339 0.239417,0.293246 0.300678,0.334087 0.09895,0.06597 0.22633,0.113165 0.334087,0.167043 0.08246,0.04123 0.156786,0.120799 0.23386,0.167044 0.04523,0.02714 0.18759,0.08866 0.233861,0.100226 0.03241,0.0081 0.06921,-0.01241 0.100226,0 0.02925,0.0117 0.04061,0.04934 0.06682,0.06682 0.151851,0.101234 0.488374,0.287922 0.601356,0.400904 0.02839,0.02839 0.03843,0.07184 0.06682,0.100227 0.0079,0.0079 0.02723,-0.0093 0.03341,0 0.200052,0.300076 0.138071,0.821636 0.167044,1.169304 0.009,0.108231 0.127051,0.581114 0.06682,0.701582 -0.01114,0.02227 -0.05401,0.01206 -0.06682,0.03341 -0.02363,0.03937 -0.0098,0.09426 -0.03341,0.133635 -0.01281,0.02135 -0.05568,0.01114 -0.06682,0.03341 -0.02539,0.05079 -0.0052,0.117741 -0.03341,0.167044 -0.01992,0.03486 -0.08227,0.0309 -0.100226,0.06682 -0.0465,0.093 0,0.327973 0,0.434313 0,0.06335 -0.02774,0.211779 0,0.26727 0.108774,0.217547 0.03348,-0.0666 0.100226,0.133634 0.145438,0.436315 0.28916,0.867482 0.434313,1.302939 0.182851,0.548553 -0.041,-0.165021 0.133635,0.300678 0.04551,0.121374 0.0425,0.245926 0.06682,0.367496 0.04982,0.24909 0.181611,0.471124 0.133635,0.734991 -0.0271,0.149026 -0.105721,0.285438 -0.133635,0.434313 -0.04593,0.244975 -0.101561,0.461482 -0.167043,0.701583 -0.01189,0.0436 -0.04432,0.248176 -0.06682,0.300678 -0.06297,0.146921 -0.07463,0.04688 -0.100226,0.200452 -0.0055,0.03295 0.0092,0.0681 0,0.100226 -0.03312,0.115921 -0.122017,0.221522 -0.167043,0.334087 -0.03009,0.07523 -0.04039,0.207436 -0.100226,0.26727 -0.01761,0.01761 -0.04921,0.0158 -0.06682,0.03341 -0.01575,0.01575 0.01575,0.05107 0,0.06682 -0.03683,0.03683 -0.136998,0.07018 -0.167043,0.100226 -0.0691,0.0691 -0.128623,0.162031 -0.200452,0.23386 -0.02839,0.02839 -0.07183,0.03843 -0.100226,0.06682 -0.02839,0.02839 -0.03843,0.07184 -0.06682,0.100227 -0.0793,0.0793 -0.188417,0.143743 -0.267269,0.23386 -0.02416,0.02761 -0.202352,0.204253 -0.233861,0.267269 -0.0417,0.0834 -0.0729,0.160975 -0.133635,0.233862 -0.138254,0.165905 -0.31891,0.285502 -0.467722,0.434311 -0.01761,0.0176 -0.01349,0.05188 -0.03341,0.06682 -0.05976,0.04482 -0.138295,0.05879 -0.200452,0.100227 -0.05933,0.03955 -0.103265,0.101745 -0.167044,0.133636 -0.01992,0.0099 -0.04569,-0.007 -0.06682,0 -0.06329,0.02109 -0.09105,0.105243 -0.133635,0.133633 -0.01853,0.01236 -0.0469,-0.0099 -0.06682,0 -0.02817,0.01408 -0.04162,0.04792 -0.06682,0.06682 -0.04153,0.03115 -0.214326,0.07092 -0.233861,0.100226 -0.01953,0.0293 -0.0052,0.07909 -0.03341,0.100225 -0.02673,0.02005 -0.06921,-0.01241 -0.100226,0 -0.02924,0.01169 -0.03981,0.05061 -0.06682,0.06682 -0.0302,0.01812 -0.06965,0.01593 -0.100226,0.03341 -0.153174,0.08753 -0.277254,0.215011 -0.434313,0.300678 -0.203345,0.110916 -0.440795,0.171366 -0.634765,0.300678 -0.06583,0.04389 -0.302087,0.217511 -0.367495,0.233863 -0.03241,0.0081 -0.06921,-0.01241 -0.100226,0 -0.02925,0.01169 -0.03981,0.05061 -0.06682,0.06682 -0.103266,0.06196 -0.253929,0.129189 -0.367495,0.167042 -0.111364,0.03712 -0.253928,0.110922 -0.367496,0.133636 -0.03276,0.0066 -0.06921,-0.01241 -0.100226,0 -0.02924,0.0117 -0.03981,0.05061 -0.06682,0.06682 -0.08795,0.05277 -0.208794,0.05428 -0.300679,0.100224 -0.245528,0.122764 0.07955,0.01805 -0.267269,0.133636 -0.129097,0.04303 -0.248339,0.07044 -0.367496,0.100227 -0.07075,0.0177 -0.129704,0.08254 -0.200452,0.100224 -0.03241,0.0081 -0.06853,-0.01056 -0.100226,0 -0.137856,0.04595 0.0113,0.0705 -0.167043,0.100227 -0.328096,0.05468 -0.66751,0.126063 -1.002261,0.200453 -0.0889,0.01976 -0.180767,0.08581 -0.26727,0.100225 -0.07689,0.01281 -0.157421,-0.01529 -0.23386,0 -0.149336,0.02987 -0.277396,0.07407 -0.434313,0.100226 -0.310825,0.05181 -0.711208,0 -1.03567,0 -0.0251,0 -0.226218,0.01529 -0.233861,0 -0.05568,-0.111363 0.133635,-0.06682 -0.133635,-0.06682 z"
       id="path936" />
  </g>
  <g
     inkscape:groupmode="layer"
     id="layer1"
     inkscape:label="Layer 1">
    <path
       style="fill:#be4f46;fill-opacity:1;stroke-width:0.0388358"
       d="M 13.235342,31.308265 C 11.216337,31.158882 9.0501125,30.340258 7.2934654,29.062818 5.271827,27.592677 3.7462931,25.482357 3.1055593,23.269561 2.8640451,22.435482 2.7811261,21.72795 2.7824165,20.512221 2.7838465,19.208862 2.9147402,18.256287 3.236177,17.211178 3.9237115,14.975746 5.1766572,12.776586 7.0187956,10.571956 7.4041515,10.11077 8.9812555,8.3619559 9.0260415,8.3461671 c 0.013991,-0.00493 0.24643,0.4541505 0.5165341,1.0201813 0.5361744,1.1236076 1.0916254,2.1889776 1.6603174,3.1845336 0.43528,0.76201 0.457279,0.793368 0.535506,0.763349 0.173478,-0.06657 1.875522,-3.056803 2.556615,-4.4915834 1.044691,-2.2007298 2.249615,-5.5528893 2.712361,-7.5459223 0.08396,-0.36163438 0.176135,-0.70231785 0.204825,-0.75707385 l 0.05216,-0.0995533 0.192266,0.2618331 c 0.824059,1.12222715 3.233738,5.79510595 4.445403,8.62057845 0.695909,1.6227863 1.778833,5.1669393 1.897985,6.2116583 0.01943,0.170335 0.04493,0.319308 0.05667,0.331054 0.102297,0.102297 2.241796,-1.450475 3.844977,-2.790561 0.128157,-0.107125 0.258491,-0.189929 0.289622,-0.184008 0.07912,0.01504 0.144032,0.266702 0.232514,0.901367 0.300869,2.158077 0.358611,5.015117 0.137603,6.808326 -0.268181,2.175933 -1.113199,4.314749 -2.35631,5.964035 -0.356059,0.472398 -1.376611,1.472769 -1.902161,1.864548 -1.761406,1.313064 -3.979345,2.210533 -6.44032,2.606019 -1.508092,0.242353 -3.411627,0.36847 -4.427279,0.29332 z m 2.330147,-1.12645 c 1.045415,-0.06307 1.677276,-0.199906 2.718505,-0.588727 1.920717,-0.717238 3.453698,-1.826667 5.034974,-3.643857 0.542302,-0.623208 0.984573,-1.176995 0.984573,-1.232828 0,-0.05453 -0.0025,-0.05416 -0.524282,0.07574 -0.396557,0.09874 -0.870002,0.134071 -0.983383,0.0734 -0.04653,-0.02491 -0.0846,-0.079 -0.0846,-0.120229 0,-0.04122 0.12937,-0.473141 0.287491,-0.959817 0.431314,-1.327539 0.601275,-2.000496 0.782555,-3.09851 0.08925,-0.540569 0.211535,-1.633754 0.211535,-1.890992 0,-0.189831 -0.09507,-0.168812 -0.435145,0.0962 -0.555365,0.432783 -1.730676,1.189586 -2.063177,1.328513 -0.271725,0.113534 -0.343099,0.0142 -0.530033,-0.737629 -0.373533,-1.502323 -1.111801,-3.402719 -2.097091,-5.398175 -0.738519,-1.495687 -1.610756,-3.019358 -1.961956,-3.427258 -0.206049,-0.239315 -0.267519,-0.221807 -0.325468,0.09271 -0.108463,0.58863 -0.570611,1.924647 -1.079594,3.120958 -0.351705,0.826647 -1.256429,2.662516 -1.665046,3.378714 -0.360335,0.631575 -0.804187,1.292098 -0.940081,1.398993 -0.09333,0.07342 -0.103339,0.07413 -0.171648,0.01231 -0.271148,-0.245383 -1.357829,-2.058624 -1.642944,-2.741424 -0.182372,-0.436744 -0.238536,-0.389729 -0.800287,0.669916 -0.9359115,1.765435 -1.5357907,3.147515 -1.8972761,4.371183 -0.1929961,0.653314 -0.2903691,1.131166 -0.3873736,1.901012 -0.043078,0.341871 -0.098752,0.680188 -0.1237202,0.751814 -0.041289,0.118446 -0.056629,0.128406 -0.1695511,0.110082 C 7.6341839,23.712834 7.337159,23.612839 7.0424153,23.501709 6.4199187,23.267 6.2060607,23.22275 6.2060607,23.328652 c 0,0.101002 0.3291065,0.90934 0.5494153,1.349455 1.1605662,2.318487 3.0309767,4.189081 5.051674,5.052175 0.494556,0.211239 0.993678,0.367147 1.38835,0.433674 0.360707,0.0608 1.514239,0.0695 2.369987,0.01786 z"
       id="path28" />
    <path
       style="fill:#ffce31;fill-opacity:1;stroke-width:0.0388358"
       d="M 13.177977,30.11945 C 12.431262,29.984685 11.38045,29.540126 10.594507,29.026486 9.5621886,28.351827 8.5072819,27.317761 7.7325666,26.221081 7.1509889,25.397805 6.4704864,24.087227 6.2655621,23.395777 c -0.039369,-0.132821 0.059844,-0.114904 0.69353,0.125252 0.3085857,0.116948 0.6309101,0.223802 0.7162771,0.237451 0.1441389,0.02305 0.1595485,0.01644 0.2159858,-0.09269 0.033784,-0.06532 0.096196,-0.407959 0.1405167,-0.771444 0.2046489,-1.67817 0.6912785,-3.10851 1.8344227,-5.39189 0.7292876,-1.456721 1.0103956,-1.925283 1.0659936,-1.776846 0.01,0.02664 0.161402,0.332469 0.336499,0.679625 0.513308,1.017707 1.376804,2.359385 1.518487,2.359385 0.366831,0 2.062852,-3.109291 3.050456,-5.592355 0.280028,-0.704052 0.717768,-2.039399 0.780958,-2.382339 0.02619,-0.142172 0.05866,-0.258495 0.07213,-0.258495 0.01347,0 0.07803,0.05679 0.143442,0.126217 0.500439,0.531062 2.032015,3.378148 2.836022,5.271959 0.600947,1.415505 0.942932,2.386122 1.232772,3.498834 0.190832,0.732615 0.219653,0.800504 0.362975,0.854995 0.0884,0.03361 0.154538,0.01392 0.453958,-0.135097 0.395374,-0.196773 1.494741,-0.916132 1.899737,-1.243073 0.147215,-0.118842 0.284346,-0.205766 0.304735,-0.193165 0.04498,0.02779 0.01239,0.508876 -0.08947,1.320783 -0.152163,1.212935 -0.423926,2.372577 -0.875268,3.734864 -0.158008,0.476916 -0.287287,0.917573 -0.287287,0.979238 0,0.07541 0.02768,0.126934 0.08454,0.157368 0.116463,0.06232 0.62656,0.0235 1.05452,-0.08026 0.188612,-0.04573 0.361466,-0.07697 0.384117,-0.06942 0.04139,0.01379 -0.209422,0.338171 -0.81857,1.058648 -0.459878,0.543922 -1.501136,1.571363 -1.986195,1.959843 -0.614128,0.491842 -1.384669,0.981877 -2.077714,1.321342 -0.919696,0.450482 -1.996279,0.823037 -2.737923,0.947471 -0.833839,0.139895 -2.802627,0.184806 -3.397244,0.07749 z"
       id="path30" />
  </g>
</svg>
