<?xml version="1.0" encoding="utf-8" ?>
<svg xmlns="http://www.w3.org/2000/svg" xmlns:xlink="http://www.w3.org/1999/xlink" width="1024" height="1024">
	<path fill="#FEFEFE" d="M0 -0L1024 0L1024 1024L-0 1024L0 -0Z"/>
	<path fill="#BD514A" d="M574.989 46.8091C575.865 47.2851 576.717 47.8556 577.401 48.5918C580.662 52.1045 583.48 57.4696 586.133 61.5119L617.001 113.16L632.619 140.75L640.25 153.448L668.639 209.955L699.924 272.921L724.963 333.5L742.25 378.494L757.191 426.23L763.497 447.119L768.49 468.25C773.152 488.457 779.701 507.302 780.131 528.305C783.046 526.724 785.511 524.342 788.25 522.468L799.367 515.168L860.332 470.75L884.315 452.558L897.572 440.843C900.306 438.202 903.188 434.811 906.25 432.606C907.556 431.666 908.39 431.359 909.932 431.568C911.404 433.665 911.52 436.31 912.125 438.75C912.987 442.225 914.572 445.605 915.123 449.156C916.074 455.287 915.894 461.603 916.736 467.75C917.173 470.943 918.916 473.641 919.216 476.969L920.057 494.35C920.214 497.398 920.049 500.811 921.52 503.555C924.467 509.052 923.44 518.173 923.559 524.462L924.075 542.25C924.135 544.394 923.773 548.223 924.51 550.099C924.972 551.276 925.852 552.173 926.693 553.091L927.156 553.587C928.252 559.559 927.59 567.011 927.625 573.124C927.706 586.98 928.104 601.161 927.173 614.97C927.027 617.134 926.991 619.657 926.406 621.75C925.906 623.536 924.822 624.808 924.553 626.75C923.38 635.219 923.856 644.475 923.261 653.094C922.761 660.339 921.488 667.237 920.605 674.415C914.116 727.14 897.277 779.743 870.169 825.603C866.218 832.287 861.663 838.406 857.282 844.784C852.141 852.267 846.749 860.229 840.982 867.25C835.766 873.601 829.832 879.42 824.069 885.27C817.116 892.327 810.197 899.431 802.718 905.939C798.591 909.531 794.082 912.607 789.737 915.925C771.06 930.185 751.89 941.736 730.865 952.162C711.596 961.717 691.988 970.71 671.594 977.641C662.596 980.7 653.359 982.969 644.187 985.426C613.887 993.543 582.683 999.486 551.456 1002.71L520.854 1004.79C515.61 1005.17 510.547 1006.41 505.343 1006.97C496.634 1007.91 487.585 1007.98 478.824 1007.98C468.562 1007.97 457.476 1008.44 447.309 1007.24C443.328 1006.77 439.524 1005.37 435.592 1004.65C430.923 1003.8 425.961 1003.71 421.225 1003.39C411.628 1002.09 401.978 999.011 392.605 996.58L383.748 994.582C371.644 991.233 359.637 986.514 348.03 981.75L322.222 970.647C284.793 952.383 249.543 927.344 219.958 898.124C213.799 892.04 207.687 885.547 202.201 878.846L196.431 871.25C193.465 867.633 190.164 864.293 187.346 860.553C175.945 845.422 166.576 829.109 158.202 812.162C151.723 799.049 145.729 786.137 140.967 772.282C138.652 765.549 137.117 758.596 135.337 751.713C133.452 744.429 131.208 737.116 129.711 729.749C128.42 723.391 128.024 716.819 127.27 710.378C126.792 706.295 125.734 702.301 125.295 698.224C124.472 690.565 124.534 682.584 124.494 674.884C124.442 664.942 124.348 654.418 125.426 644.547L127.902 628.653C130.901 605.035 135.852 581.307 143.179 558.623C147 546.794 151.686 535.33 156.398 523.835C158.779 518.027 160.746 512.071 163.397 506.375C169.547 493.156 176.565 480.654 183.709 467.969L194.441 448.834L208.006 428.49L237.657 386.157L270.879 346.257L285.756 328.624L321.577 292.602C321.897 292.513 322.206 292.299 322.537 292.333C322.726 292.353 322.819 292.592 322.937 292.741C324.245 294.388 324.745 297.276 325.517 299.25L330.164 309.904C336.625 325.92 344.403 341.05 352.129 356.482L367.002 386.5L379.265 407.897L394.207 434.191C396.636 438.236 399.646 446.413 403.75 448.66C408.396 447.213 418.446 427.628 421.682 422.351C442.67 388.126 462.606 353.134 480.153 317.011L495.605 282.797L506.888 257.89L530.67 195.612L543.178 161.612L549.716 139.631L559.675 106.066L570.61 63.2385C571.817 58.4061 572.378 50.8507 574.989 46.8091Z"/>
	<path fill="#FECF33" d="M559.669 357.45C566.993 364.465 571.371 374.582 576.686 383.137L605.436 431.111L628.588 477C644.57 508.612 659.869 540.304 671.022 574.008L683.783 614.539L690.495 638.489C692.774 647.411 693.37 656.075 698.227 664.151C701.891 664.583 706.143 663.723 709.547 662.308C717.053 659.19 724.061 654.29 730.861 649.861L770.374 621.854C775.328 617.98 779.71 613.699 785.014 610.221C785.101 619.317 784.875 628.964 783.81 637.988L781.511 652.682L779.415 672.036C777.276 686.651 773.777 701.239 770.427 715.618C769.132 721.179 768.309 726.847 766.829 732.367C762.881 747.098 757.66 761.812 752.43 776.14C749.587 783.929 746.201 791.67 744.104 799.699C743.48 802.084 742.854 804.339 743.588 806.75C745.939 807.993 749.521 807.949 752.127 807.995C756.935 808.081 761.982 808.108 766.718 807.245C769.507 806.736 772.116 805.661 774.846 804.949L785.913 802.279C788.666 801.501 793.401 798.88 796.139 799.75C795.372 802.499 792.92 804.591 791.081 806.702L781.99 817.309L747.763 857.927L730.169 875.499C720.564 884.736 710.053 892.965 699.512 901.082C689.803 908.558 680.073 916.328 669.712 922.884C659.238 929.511 647.756 936.01 636.507 941.198L621.926 947.173C598.079 957.069 574.654 964.104 549.116 968.229C543.512 969.135 537.971 970.38 532.315 970.949C520.763 972.112 509.323 971.672 497.75 971.644L458.328 971.422L452.5 970.917C448.906 970.424 445.324 969.194 441.832 968.241L427.279 964.252C396.653 954.68 368.584 938.535 343.387 918.781C335.286 912.43 326.961 905.701 319.611 898.484C310.811 889.843 302.74 879.836 295.027 870.215C291.79 866.177 288.27 862.192 285.25 858.002C276.943 846.477 269.702 834.212 262.484 822C257.453 813.487 252.301 805.406 248.021 796.432C244.39 788.819 241.727 780.75 238.267 773.034C236.164 768.346 230.821 760.606 231.587 755.539C236.568 753.274 247.337 759.335 251.896 761.389L265.687 767.009C269.515 768.624 273.549 770.796 277.686 771.438L278.5 771.553C281.619 772.017 284.282 771.939 287.403 771.656L289.051 735.948C291.126 721.442 294.822 706.673 298.66 692.541C302.998 676.573 307.498 660.815 313.376 645.316C320.769 625.822 329.978 607.358 339.19 588.695C347.413 572.033 355.61 555.478 365.25 539.589C369.195 533.086 372.635 523.611 378.741 518.987C382.789 525.05 384.26 532.293 387.551 538.797L400.814 562.188L418.003 591.746C423.159 600.356 428.98 611.747 437.03 617.915C444.124 613.154 448.684 604.215 453.433 597.272C462.253 584.378 469.734 571.007 477.522 557.5C503.805 511.913 524.506 463.796 542.25 414.316C545.532 405.164 548.723 395.531 551.191 386.124C553.619 376.872 555.274 365.935 559.669 357.45Z"/>
	<path fill="#FEDE86" d="M585.451 607.021C585.672 607.264 585.958 607.461 586.115 607.75C586.987 609.358 584.387 625.374 584.108 628.399L580.827 677.025C579.392 703.267 578.104 730.114 581.41 756.25C582.578 765.485 583.662 774.192 588.529 782.365L588.913 783C589.958 784.757 590.981 786.248 592.393 787.723C597.259 792.812 602.538 795.863 609.723 795.919C617.366 795.979 624.422 793.453 631.44 790.755C655.702 781.429 679.266 764.067 697.631 745.818C697.411 763.887 692.682 782.3 686.969 799.34C682.791 811.799 676.998 824.67 670.376 836.006L661.456 849.717C647.274 871.422 631.123 891.016 611.262 907.813C607.225 911.228 602.54 914.093 598.272 917.235C590.076 923.268 581.469 929.268 572.343 933.794C553.94 942.921 533.03 950.941 512.325 951.818C505.869 952.091 499.355 951.044 492.994 950.045C484.196 948.664 475.827 947.126 467.363 944.269L458.892 941.542C436.583 934.036 415.824 920.616 398 905.428C393.121 901.27 388.122 897.176 383.76 892.464C370.614 878.262 359.882 861.367 351.364 844.056C346.852 834.887 344.436 825.77 342.271 815.843C339.227 801.882 337.852 787.636 338.527 773.331C339.446 753.875 344.82 734.594 350.999 716.228C367.367 733.542 383.081 753.155 406.137 761.901L406.867 762.171C409.066 762.998 411.195 763.615 413.5 764.086C418.372 765.082 423.033 765.611 427.329 762.508C431.092 759.791 434.31 754.763 437.25 751.122L460.985 720.353L477.591 700.497C483.809 693.105 490.758 686.306 497.496 679.389C506.686 669.955 515.862 660.519 525.74 651.796C544.439 635.284 564.613 620.688 585.451 607.021Z"/>
</svg>
