<?xml version="1.0" encoding="utf-8"?>
<!-- Generator: Adobe Illustrator 28.3.0, SVG Export Plug-In . SVG Version: 6.00 Build 0)  -->
<svg version="1.1" id="Layer_1" xmlns="http://www.w3.org/2000/svg" xmlns:xlink="http://www.w3.org/1999/xlink" x="0px" y="0px"
	 viewBox="0 0 1024 1024" style="enable-background:new 0 0 1024 1024;" xml:space="preserve">
<style type="text/css">
	.st0{fill:#BD514A;}
	.st1{fill:#FECF33;}
	.st2{fill:#FEDE86;}
</style>
<path class="st0" d="M575,46.8c0.9,0.5,1.7,1,2.4,1.8c3.3,3.5,6.1,8.9,8.7,12.9l30.9,51.6l15.6,27.6l7.6,12.7l28.4,56.5l31.3,63
	l25,60.6l17.3,45l14.9,47.7l6.3,20.9l5,21.1c4.7,20.2,11.2,39.1,11.6,60.1c2.9-1.6,5.4-4,8.1-5.8l11.1-7.3l58.7-44l24-18.2
	l13.3-11.7c2.7-2.6,5.6-6,8.7-8.2c1.6-1.1,2.1-1.4,3.7-1c1.6,0.4,3.3,5.2,3.9,7.6c1.5,5.6,3.5,11.1,5.7,25.2
	c1.8,12.2,2.9,19.7,6.1,57.1c1.8,21.2,2.3,54.2,1.9,90.7c-0.1,10-1.4,31.8-2,40.4c-0.5,7.2-1.8,14.1-2.7,21.3
	c-6.5,52.7-23.3,105.3-50.4,151.2c-4,6.7-8.5,12.8-12.9,19.2c-5.1,7.5-10.5,15.4-16.3,22.5c-5.2,6.4-11.2,12.2-16.9,18
	c-7,7.1-13.9,14.2-21.4,20.7c-4.1,3.6-8.6,6.7-13,10c-18.7,14.3-37.8,25.8-58.9,36.2c-19.3,9.6-38.9,18.5-59.3,25.5
	c-9,3.1-18.2,5.3-27.4,7.8c-30.3,8.1-61.5,14.1-92.7,17.3l-30.6,2.1c-5.2,0.4-10.3,1.6-15.5,2.2c-8.7,0.9-17.8,1-26.5,1
	c-10.3,0-21.3,0.5-31.5-0.7c-4-0.5-7.8-1.9-11.7-2.6c-4.7-0.9-9.6-0.9-14.4-1.3c-9.6-1.3-19.2-4.4-28.6-6.8l-8.9-2
	c-12.1-3.3-24.1-8.1-35.7-12.8l-25.8-11.1c-37.4-18.3-72.7-43.3-102.3-72.5c-6.2-6.1-12.3-12.6-17.8-19.3l-5.8-7.6
	c-3-3.6-6.3-7-9.1-10.7c-11.4-15.1-20.8-31.4-29.1-48.4c-6.5-13.1-12.5-26-17.2-39.9c-2.3-6.7-3.8-13.7-5.6-20.6
	c-1.9-7.3-4.1-14.6-5.6-22c-1.3-6.4-1.7-12.9-2.4-19.4c-0.5-4.1-1.5-8.1-2-12.2c-0.8-7.7-0.8-15.6-0.8-23.3
	c-0.1-9.9-0.1-20.5,0.9-30.3l2.5-15.9c3-23.6,8-47.3,15.3-70c3.8-11.8,8.5-23.3,13.2-34.8c2.4-5.8,4.3-11.8,7-17.5
	c6.1-13.2,13.2-25.7,20.3-38.4l10.7-19.1l13.6-20.3l29.7-42.3l33.2-39.9l14.9-17.6l35.8-36c0.3-0.1,0.6-0.3,1-0.3
	c0.2,0,0.3,0.3,0.4,0.4c1.3,1.6,1.8,4.5,2.6,6.5l4.6,10.7c6.5,16,14.2,31.1,22,46.6l14.9,30l12.3,21.4l14.9,26.3
	c2.4,4,5.4,12.2,9.5,14.5c4.6-1.4,14.7-21,17.9-26.3c21-34.2,40.9-69.2,58.5-105.3l15.5-34.2l11.3-24.9l23.8-62.3l12.5-34l6.5-22
	l10-33.6l10.9-42.8C571.8,58.4,572.4,50.9,575,46.8z"/>
<path class="st1" d="M559.7,357.5c7.3,7,11.7,17.1,17,25.7l28.8,48l23.2,45.9c16,31.6,31.3,63.3,42.4,97l12.8,40.5l6.7,24
	c2.3,8.9,2.9,17.6,7.7,25.7c3.7,0.4,7.9-0.4,11.3-1.8c7.5-3.1,14.5-8,21.3-12.4l39.5-28c5-3.9,9.3-8.2,14.6-11.6
	c0.1,9.1-0.1,18.7-1.2,27.8l-2.3,14.7l-2.1,19.4c-2.1,14.6-5.6,29.2-9,43.6c-1.3,5.6-2.1,11.2-3.6,16.7
	c-3.9,14.7-9.2,29.4-14.4,43.8c-2.8,7.8-6.2,15.5-8.3,23.6c-0.6,2.4-1.2,4.6-0.5,7.1c2.4,1.2,5.9,1.2,8.5,1.2
	c4.8,0.1,9.9,0.1,14.6-0.8c2.8-0.5,5.4-1.6,8.1-2.3l11.1-2.7c2.8-0.8,7.5-3.4,10.2-2.5c-0.8,2.7-3.2,4.8-5.1,7l-9.1,10.6l-34.2,40.6
	l-17.6,17.6c-9.6,9.2-20.1,17.5-30.7,25.6c-9.7,7.5-19.4,15.2-29.8,21.8c-10.5,6.6-22,13.1-33.2,18.3l-14.6,6
	c-23.8,9.9-47.3,16.9-72.8,21.1c-5.6,0.9-11.1,2.2-16.8,2.7c-11.6,1.2-23,0.7-34.6,0.7l-39.4-0.2l-5.8-0.5
	c-3.6-0.5-7.2-1.7-10.7-2.7l-14.6-4c-30.6-9.6-58.7-25.7-83.9-45.5c-8.1-6.4-16.4-13.1-23.8-20.3c-8.8-8.6-16.9-18.6-24.6-28.3
	c-3.2-4-6.8-8-9.8-12.2c-8.3-11.5-15.5-23.8-22.8-36c-5-8.5-10.2-16.6-14.5-25.6c-3.6-7.6-6.3-15.7-9.8-23.4
	c-2.1-4.7-7.4-12.4-6.7-17.5c5-2.3,15.8,3.8,20.3,5.8l13.8,5.6c3.8,1.6,7.9,3.8,12,4.4l0.8,0.1c3.1,0.5,5.8,0.4,8.9,0.1l1.6-35.7
	c2.1-14.5,5.8-29.3,9.6-43.4c4.3-16,8.8-31.7,14.7-47.2c7.4-19.5,16.6-38,25.8-56.6c8.2-16.7,16.4-33.2,26.1-49.1
	c3.9-6.5,7.4-16,13.5-20.6c4,6.1,5.5,13.3,8.8,19.8l13.3,23.4l17.2,29.6c5.2,8.6,11,20,19,26.2c7.1-4.8,11.7-13.7,16.4-20.6
	c8.8-12.9,16.3-26.3,24.1-39.8c26.3-45.6,47-93.7,64.7-143.2c3.3-9.2,6.5-18.8,8.9-28.2C553.6,376.9,555.3,365.9,559.7,357.5z"/>
<path class="st2" d="M585.5,607c0.2,0.2,0.5,0.4,0.7,0.7c0.9,1.6-1.7,17.6-2,20.6l-3.3,48.6c-1.4,26.2-2.7,53.1,0.6,79.2
	c1.2,9.2,2.3,17.9,7.1,26.1l0.4,0.6c1,1.8,2.1,3.2,3.5,4.7c4.9,5.1,10.1,8.1,17.3,8.2c7.6,0.1,14.7-2.5,21.7-5.2
	c24.3-9.3,47.8-26.7,66.2-44.9c-0.2,18.1-4.9,36.5-10.7,53.5c-4.2,12.5-10,25.3-16.6,36.7l-8.9,13.7c-14.2,21.7-30.3,41.3-50.2,58.1
	c-4,3.4-8.7,6.3-13,9.4c-8.2,6-16.8,12-25.9,16.6c-18.4,9.1-39.3,17.1-60,18c-6.5,0.3-13-0.8-19.3-1.8c-8.8-1.4-17.2-2.9-25.6-5.8
	l-8.5-2.7c-22.3-7.5-43.1-20.9-60.9-36.1c-4.9-4.2-9.9-8.3-14.2-13c-13.1-14.2-23.9-31.1-32.4-48.4c-4.5-9.2-6.9-18.3-9.1-28.2
	c-3-14-4.4-28.2-3.7-42.5c0.9-19.5,6.3-38.7,12.5-57.1c16.4,17.3,32.1,36.9,55.1,45.7l0.7,0.3c2.2,0.8,4.3,1.4,6.6,1.9
	c4.9,1,9.5,1.5,13.8-1.6c3.8-2.7,7-7.7,9.9-11.4l23.7-30.8l16.6-19.9c6.2-7.4,13.2-14.2,19.9-21.1c9.2-9.4,18.4-18.9,28.2-27.6
	C544.4,635.3,564.6,620.7,585.5,607z"/>
</svg>
