<?xml version="1.0" encoding="utf-8"?>
<!-- Generator: Adobe Illustrator 25.2.1, SVG Export Plug-In . SVG Version: 6.00 Build 0)  -->
<svg version="1.1" id="Layer_1" xmlns="http://www.w3.org/2000/svg" xmlns:xlink="http://www.w3.org/1999/xlink" x="0px" y="0px"
	 viewBox="0 0 100 100" style="enable-background:new 0 0 100 100;" xml:space="preserve">
<style type="text/css">
	.st0{fill:#F4EAE1;}
</style>
<path class="st0" d="M50,100c27.6,0,50-22.4,50-50S77.6,0,50,0S0,22.4,0,50S22.4,100,50,100z"/>
<g>
	<path d="M38.4,12c0.4,0.9,0.1,2-1.5,2.6L33.5,16L31,9.7l3.3-1.3c1.5-0.6,2.4,0,2.8,0.8c0.3,0.6,0.1,1.3-0.6,1.8
		C37.4,10.8,38.1,11.2,38.4,12z M32.5,10.1l0.7,1.7l1.9-0.8c0.9-0.4,0.9-0.9,0.7-1.3c-0.2-0.4-0.6-0.8-1.4-0.4L32.5,10.1z
		 M37.1,12.4c-0.2-0.5-0.7-0.8-1.5-0.5l-2,0.8l0.7,1.9l2-0.8C37.2,13.5,37.3,13,37.1,12.4z"/>
	<path d="M44.2,11L41,11.7l-0.4,1.7l-1.3,0.3l1.7-7.2l1.4-0.3l4.2,6.1l-1.3,0.3L44.2,11z M43.7,10.2L42.2,8
		c-0.1-0.2-0.3-0.5-0.4-0.7l0,0c0,0.3-0.1,0.6-0.1,0.8l-0.5,2.5L43.7,10.2z"/>
	<path d="M46.3,9c0-2.1,1.4-3.6,3.7-3.6c1.9,0,3.1,0.9,3.4,2.4L52,8c-0.2-1-0.9-1.6-2.1-1.6c-1.5,0-2.3,1-2.3,2.5
		c0,1.5,0.9,2.5,2.4,2.5c1.1,0,1.8-0.6,2-1.6l1.3,0.2c-0.4,1.4-1.5,2.4-3.4,2.4C47.7,12.5,46.4,11.1,46.3,9z"/>
	<path d="M57.6,9.8l-1.6,1l-0.4,1.9l-1.3-0.2l1.3-6.6L57,6.1l-0.6,3.2l3.9-2.6L61.9,7l-3.1,2.1l2.1,4.6l-1.5-0.3L57.6,9.8z"/>
	<path d="M71.6,12.3l-2.2-1.1l-2.5,5.1l-1.2-0.6l2.5-5.1L66,9.5l0.5-0.9l5.6,2.7L71.6,12.3z"/>
	<path d="M70.9,14.5c1.3-1.8,3.3-2,5.1-0.7c1.8,1.3,2.2,3.3,0.9,5.1c-1.3,1.8-3.3,2-5.1,0.7C70.1,18.2,69.7,16.2,70.9,14.5z
		 M75.9,18c0.9-1.3,0.7-2.6-0.4-3.4c-1.2-0.9-2.5-0.6-3.4,0.7c-0.9,1.2-0.7,2.6,0.5,3.5C73.7,19.6,75,19.3,75.9,18z"/>
	<path d="M83.2,20.2l1.1,1.5L81.6,26c-0.2,0.2-0.3,0.4-0.4,0.5l0,0c0.2-0.1,0.4-0.2,0.7-0.3l4.9-1.3l1.1,1.5l-5.4,4.1l-0.7-0.9
		l3.9-3c0.2-0.2,0.5-0.3,0.7-0.4l0,0c-0.1,0.1-0.5,0.2-0.7,0.3l-5.1,1.4l-0.7-0.9l2.8-4.5c0.1-0.2,0.3-0.5,0.5-0.6l0,0
		c-0.2,0.2-0.4,0.3-0.6,0.5l-3.9,3l-0.7-0.9L83.2,20.2z"/>
	<path d="M86.6,35.4l-1.4-3l-1.8,0.1l-0.6-1.2l7.4-0.1l0.6,1.3l-4.9,5.5l-0.6-1.2L86.6,35.4z M87.3,34.6l1.8-1.9
		c0.2-0.2,0.4-0.4,0.6-0.6l0,0c-0.3,0-0.6,0.1-0.8,0.1l-2.6,0.1L87.3,34.6z"/>
	<path d="M86,38.8l6.5-1.9l0.4,1.2L86.4,40L86,38.8z"/>
	<path d="M93.6,40.6l0.2,1.5l-4,3.9c-0.2,0.2-0.5,0.4-0.7,0.6l0,0c0.3,0,0.5-0.1,0.9-0.1l4.3-0.6l0.2,1.2l-6.7,0.9l-0.2-1.4l4-3.9
		c0.2-0.2,0.5-0.4,0.7-0.5l0,0c-0.3,0-0.5,0.1-0.9,0.1L87,42.7l-0.2-1.2L93.6,40.6z"/>
	<path d="M88.8,58.6c-1-0.1-1.8-0.9-1.5-2.6l0.5-3.7l6.7,0.9l-0.5,3.6c-0.2,1.6-1.2,2.1-2,2c-0.7-0.1-1.2-0.6-1.3-1.4
		C90.3,58.3,89.6,58.7,88.8,58.6z M89.1,57.3c0.6,0.1,1-0.2,1.1-1.1l0.3-2.2l-2-0.3l-0.3,2.1C88.1,56.8,88.5,57.2,89.1,57.3z
		 M93.3,54.4l-1.9-0.3l-0.3,2c-0.1,1,0.3,1.2,0.8,1.3c0.5,0.1,0.9-0.1,1.1-1.1L93.3,54.4z"/>
	<path d="M86.8,64.1l1.1-3.2l-1.3-1.2l0.4-1.3l5.4,5l-0.5,1.4l-7.3,0.7l0.4-1.3L86.8,64.1z M87.8,64l2.6-0.2c0.2,0,0.5,0,0.8,0l0,0
		c-0.2-0.2-0.5-0.4-0.7-0.5l-2-1.7L87.8,64z"/>
	<path d="M87.5,67c1.8,1,2.4,3,1.3,5c-0.9,1.6-2.3,2.2-3.8,1.7l0.5-1.3c1,0.3,1.8,0,2.4-1c0.7-1.3,0.3-2.5-1-3.3
		c-1.3-0.7-2.6-0.5-3.3,0.8c-0.5,1-0.4,1.9,0.3,2.6l-0.9,1c-1-1-1.3-2.5-0.4-4.1C83.8,66.4,85.7,66,87.5,67z"/>
	<path d="M81.3,76.4l-0.1-1.9l-1.5-1.3l0.8-1l5.1,4.4l-0.8,1l-2.5-2.2l0.3,4.7l-1,1.2l-0.2-3.8l-5-0.5l1-1.2L81.3,76.4z"/>
	<path d="M72.2,87.4l2-1.4L71,81.3l1.1-0.7l3.3,4.7l2-1.4l0.6,0.9l-5.1,3.6L72.2,87.4z"/>
	<path d="M70.6,85.7c0.9,2,0.2,3.9-1.9,4.8c-2,0.9-4,0.3-4.9-1.7c-0.9-2-0.2-3.9,1.9-4.8C67.8,83.1,69.7,83.7,70.6,85.7z M65.1,88.3
		c0.7,1.4,1.9,1.9,3.2,1.3c1.3-0.6,1.7-1.9,1.1-3.3c-0.6-1.4-1.9-1.9-3.2-1.3C64.9,85.6,64.4,86.9,65.1,88.3z"/>
	<path d="M59.7,93.6l-1.9,0.2l-2.4-4.4c-0.1-0.3-0.2-0.4-0.3-0.6l0,0c0,0.2,0,0.4-0.1,0.7l-1.2,4.9l-1.9,0.2L51,87.9l1.2-0.2
		l0.6,4.9c0,0.3,0.1,0.6,0.1,0.8l0,0c0-0.2,0.1-0.5,0.1-0.8l1.3-5.2l1.2-0.2l2.6,4.7c0.1,0.2,0.3,0.5,0.3,0.7l0,0
		c-0.1-0.2-0.1-0.5-0.1-0.8L57.7,87l1.1-0.1L59.7,93.6z"/>
	<path d="M44.8,89l3.3,0.3l0.8-1.6l1.4,0.1l-3.6,6.4l-1.4-0.1l-2.3-7l1.3,0.1L44.8,89z M45.1,90l0.8,2.5c0.1,0.2,0.1,0.5,0.2,0.8
		l0,0c0.1-0.3,0.2-0.6,0.3-0.8l1.2-2.3L45.1,90z"/>
	<path d="M42.1,86.9l-1.5,6.6l-1.3-0.3l1.5-6.6L42.1,86.9z"/>
	<path d="M36.8,92.6L35.4,92L34,86.7c-0.1-0.3-0.1-0.6-0.1-0.9l0,0c-0.1,0.3-0.2,0.5-0.3,0.8l-1.6,4.1l-1.1-0.4l2.5-6.3l1.3,0.5
		l1.5,5.4c0.1,0.3,0.1,0.6,0.1,0.9l0,0c0.1-0.2,0.2-0.5,0.3-0.8l1.6-4.1l1.1,0.4L36.8,92.6z"/>
	<path d="M23.5,79.6c0.6-0.8,1.7-1.1,3-0.1l3,2.2l-4.1,5.4l-2.9-2.2c-1.3-1-1.3-2.1-0.8-2.8c0.4-0.5,1.1-0.8,1.9-0.5
		C23,81,23,80.3,23.5,79.6z M24.9,85.6l1.1-1.5l-1.6-1.2c-0.8-0.6-1.2-0.3-1.5,0c-0.3,0.4-0.4,0.9,0.4,1.5L24.9,85.6z M24.5,80.5
		c-0.4,0.5-0.3,1,0.4,1.5l1.8,1.3l1.2-1.6l-1.7-1.3C25.4,79.9,24.8,80,24.5,80.5z"/>
	<path d="M19.7,75.1l2.2,2.5l1.7-0.6l0.9,1l-7,2.3l-1-1.1l3-6.7l0.9,1L19.7,75.1z M19.2,76l-1.1,2.3c-0.1,0.2-0.3,0.5-0.4,0.7l0,0
		c0.2-0.1,0.5-0.2,0.8-0.3l2.4-0.9L19.2,76z"/>
	<path d="M16.7,74.3c-1.8,1.1-3.8,0.6-5-1.3c-1-1.6-0.8-3.1,0.4-4.1l0.9,1c-0.8,0.7-0.9,1.6-0.3,2.6c0.8,1.2,2,1.5,3.3,0.7
		c1.3-0.8,1.7-2.1,0.9-3.3c-0.6-0.9-1.4-1.3-2.4-1l-0.5-1.2c1.4-0.4,2.8,0.1,3.8,1.7C19.1,71.4,18.5,73.2,16.7,74.3z"/>
	<path d="M11.6,64.3l1.7,0.8l1.9-0.7l0.4,1.2L9.2,68l-0.4-1.2l3.1-1.1l-4.3-2l-0.6-1.5l3.4,1.6l2.9-4.1l0.5,1.4L11.6,64.3z"/>
	<path d="M6.5,51l0.2,2.5l5.7-0.5l0.1,1.3l-5.7,0.5l0.2,2.5l-1,0.1l-0.6-6.2L6.5,51z"/>
	<path d="M8.8,50.5c-2.2-0.2-3.4-1.8-3.3-4c0.2-2.2,1.7-3.6,3.8-3.4s3.4,1.8,3.3,4C12.4,49.3,10.9,50.6,8.8,50.5z M9.2,44.4
		c-1.5-0.1-2.6,0.7-2.7,2.2C6.4,48,7.3,49,8.9,49.1c1.5,0.1,2.6-0.7,2.7-2.2C11.7,45.5,10.8,44.5,9.2,44.4z"/>
	<path d="M7.3,37L8,35.3l5.1,0.1c0.3,0,0.5,0,0.7,0.1l0,0c-0.2-0.1-0.3-0.2-0.6-0.4l-3.7-3.5l0.7-1.8l6.3,2.5l-0.4,1.1l-4.6-1.8
		c-0.3-0.1-0.5-0.2-0.7-0.3l0,0c0.1,0.1,0.4,0.3,0.6,0.5l3.9,3.7l-0.4,1.1l-5.3-0.1c-0.2,0-0.6,0-0.8-0.1l0,0c0.2,0,0.5,0.1,0.7,0.3
		l4.6,1.8l-0.4,1.1L7.3,37z"/>
	<path d="M18.6,26.3L16.7,29l1,1.5l-0.8,1.1L13,25.3l0.8-1.2l7.2,1.4l-0.8,1.1L18.6,26.3z M17.6,26l-2.5-0.6c-0.2,0-0.5-0.1-0.8-0.2
		l0,0c0.2,0.2,0.4,0.5,0.5,0.7l1.4,2.2L17.6,26z"/>
	<path d="M21.8,25l-5-4.6l0.9-1l5,4.6L21.8,25z"/>
	<path d="M19.4,17.6l1.1-0.9l5.4,1.4c0.3,0.1,0.6,0.2,0.8,0.3l0,0c-0.2-0.2-0.4-0.4-0.6-0.7l-2.8-3.4l0.9-0.7l4.3,5.2l-1.1,0.9
		l-5.5-1.4c-0.3-0.1-0.6-0.2-0.8-0.3l0,0c0.2,0.2,0.3,0.4,0.6,0.7l2.8,3.4l-0.9,0.7L19.4,17.6z"/>
</g>
</svg>
