<?xml version="1.0" encoding="utf-8"?>
<!-- Generator: Adobe Illustrator 25.2.1, SVG Export Plug-In . SVG Version: 6.00 Build 0)  -->
<svg version="1.1" id="Layer_1" xmlns="http://www.w3.org/2000/svg" xmlns:xlink="http://www.w3.org/1999/xlink" x="0px" y="0px"
	 viewBox="0 0 100 100" style="enable-background:new 0 0 100 100;" xml:space="preserve">
<style type="text/css">
	.st0{display:none;fill:#F4EAE1;}
	.st1{display:none;fill:#686664;}
	.st2{fill:none;}
	.st3{display:none;}
</style>
<path class="st0" d="M50,100c27.6,0,50-22.4,50-50S77.6,0,50,0S0,22.4,0,50S22.4,100,50,100z"/>
<path class="st1" d="M50,87.7c20.8,0,37.7-16.9,37.7-37.7S70.8,12.3,50,12.3S12.3,29.2,12.3,50S29.2,87.7,50,87.7z"/>
<path id="SVGID_x5F_1_x5F_" class="st2" d="M12.3,50c0-20.8,16.9-37.7,37.7-37.7S87.7,29.2,87.7,50S70.8,87.7,50,87.7
	S12.3,70.8,12.3,50z"/>
<text class="st3"><textPath  xlink:href="#SVGID_x5F_1_x5F_" startOffset="23.4375%"  style="display:inline;">
<tspan  style="font-family:'GTAmericaTrial-ExtMd'; font-size:8.75px;">SOUND OFF SOUND OFF SOUND OFF SOUND OFF</tspan></textPath>
</text>
<g>
	<path d="M32.2,14.8L33,14c0.6,0.6,1.4,0.8,2.5,0.4c0.9-0.4,1.3-0.8,1.1-1.4c-0.2-0.5-0.6-0.6-1.4-0.4l-1.3,0.3
		c-1.2,0.3-2,0-2.4-0.9c-0.4-1.1,0.2-2.1,1.8-2.7c1.3-0.5,2.5-0.5,3.3,0.4l-0.7,0.8c-0.6-0.6-1.3-0.7-2.3-0.3
		c-0.8,0.3-1.2,0.8-1,1.3c0.2,0.5,0.6,0.6,1.4,0.4l1.3-0.3c1.3-0.3,2.1-0.1,2.5,0.9c0.4,1.1-0.1,2.2-1.8,2.9
		C34.2,15.9,33,15.7,32.2,14.8z"/>
	<path d="M38,10.8c-0.4-2,0.6-3.5,2.7-3.9c2-0.4,3.6,0.5,4,2.5c0.4,2-0.6,3.5-2.7,3.9C40,13.8,38.4,12.8,38,10.8z M43.5,9.7
		c-0.3-1.4-1.3-2.1-2.6-1.8c-1.3,0.3-2,1.4-1.7,2.7c0.3,1.4,1.3,2.1,2.6,1.8C43.2,12.1,43.8,11,43.5,9.7z"/>
	<path d="M47.2,6.1l0.1,3.7c0,1,0.7,1.7,1.8,1.7c1.1,0,1.7-0.8,1.7-1.7l-0.1-3.7l1.2,0L52,9.8c0,1.5-1,2.6-2.9,2.7s-3-1-3-2.6
		L46,6.2L47.2,6.1z"/>
	<path d="M54.3,6.2l1.3,0.2l2.3,4.5c0.1,0.3,0.2,0.5,0.3,0.8l0,0c0-0.2,0.1-0.5,0.1-0.8L59,7l1.1,0.2l-1,6.1l-1.3-0.2l-2.4-4.6
		c-0.1-0.3-0.2-0.5-0.3-0.8l0,0c0,0.2-0.1,0.5-0.1,0.8l-0.7,4l-1.1-0.2L54.3,6.2z"/>
	<path d="M62.6,7.8l2.7,1c1.9,0.7,2.7,2.2,2.1,4c-0.7,1.8-2.4,2.5-4.2,1.8l-2.7-1L62.6,7.8z M63.4,13.8c1.3,0.5,2.3-0.1,2.8-1.4
		c0.5-1.2,0-2.3-1.3-2.8l-1.5-0.5l-1.5,4.1L63.4,13.8z"/>
	<path d="M70.7,14.7c1.2-1.6,3-1.9,4.7-0.7c1.7,1.2,2.1,3,0.9,4.7c-1.2,1.6-3,1.9-4.7,0.7C70,18.2,69.6,16.3,70.7,14.7z M75.3,17.9
		c0.8-1.2,0.7-2.4-0.4-3.2c-1.1-0.8-2.3-0.5-3.1,0.6c-0.8,1.2-0.7,2.4,0.4,3.2C73.3,19.4,74.5,19.1,75.3,17.9z"/>
	<path d="M79.7,17.5l0.9,1l-0.9,5c-0.1,0.3-0.1,0.6-0.2,0.8l0,0c0.2-0.2,0.4-0.4,0.6-0.6L83,21l0.8,0.8L79.2,26l-0.9-0.9l0.9-5.1
		c0.1-0.3,0.1-0.6,0.2-0.8l0,0c-0.2,0.2-0.3,0.3-0.6,0.6l-2.9,2.8l-0.8-0.8L79.7,17.5z"/>
	<path d="M85.6,33l0.8,0.8c-0.6,0.6-0.9,1.4-0.5,2.5c0.3,0.9,0.8,1.3,1.4,1.1c0.5-0.2,0.6-0.6,0.4-1.4l-0.3-1.3c-0.3-1.2,0-2,1-2.4
		c1.1-0.4,2.1,0.3,2.7,1.8c0.5,1.3,0.4,2.5-0.4,3.2l-0.8-0.7c0.6-0.5,0.7-1.3,0.4-2.3c-0.3-0.8-0.8-1.2-1.3-1
		c-0.5,0.2-0.6,0.6-0.4,1.4l0.3,1.3c0.3,1.3,0.1,2.1-1,2.5c-1.1,0.4-2.2-0.2-2.8-1.9C84.4,35,84.7,33.7,85.6,33z"/>
	<path d="M89.4,38.8c2-0.4,3.5,0.7,3.9,2.8c0.4,2-0.6,3.6-2.6,4c-2,0.4-3.5-0.7-3.9-2.7C86.4,40.8,87.5,39.2,89.4,38.8z M90.5,44.4
		c1.4-0.3,2.1-1.3,1.9-2.6c-0.3-1.3-1.3-2-2.7-1.7c-1.4,0.3-2.1,1.3-1.9,2.6C88,44,89.1,44.6,90.5,44.4z"/>
	<path d="M93.9,48l-3.7,0.1c-1,0-1.7,0.7-1.7,1.8c0,1.1,0.7,1.7,1.7,1.7l3.7-0.1l0,1.2l-3.8,0.1c-1.5,0-2.6-1-2.7-2.9
		c0-1.9,1-3,2.6-3l3.8-0.1L93.9,48z"/>
	<path d="M93.7,55.2l-0.2,1.3l-4.6,2.2c-0.3,0.1-0.5,0.2-0.8,0.3l0,0c0.2,0,0.5,0.1,0.8,0.1l4,0.7L92.6,61l-6.1-1.1l0.2-1.3l4.7-2.3
		c0.3-0.1,0.5-0.2,0.8-0.3l0,0c-0.2,0-0.5-0.1-0.8-0.1l-4-0.7l0.2-1.1L93.7,55.2z"/>
	<path d="M91.9,63.5l-1.1,2.7c-0.7,1.9-2.3,2.7-4.1,2c-1.8-0.7-2.4-2.4-1.7-4.3l1-2.7L91.9,63.5z M85.9,64.1
		c-0.5,1.3,0.1,2.3,1.3,2.8c1.2,0.5,2.3,0,2.8-1.2l0.6-1.5l-4.1-1.6L85.9,64.1z"/>
	<path d="M84.9,71.5c1.6,1.2,1.8,3,0.6,4.7c-1.2,1.7-3.1,2-4.7,0.8c-1.6-1.2-1.8-3-0.6-4.7C81.4,70.6,83.3,70.3,84.9,71.5z M81.5,76
		c1.1,0.8,2.4,0.7,3.2-0.4c0.8-1.1,0.6-2.3-0.6-3.2c-1.1-0.8-2.4-0.7-3.2,0.4C80.1,73.9,80.4,75.1,81.5,76z"/>
	<path d="M81.9,80.3l-1,0.9l-5-1c-0.3-0.1-0.6-0.1-0.8-0.3l0,0c0.2,0.2,0.3,0.4,0.6,0.6l2.7,3l-0.8,0.7l-4.2-4.6l1-0.9l5.1,1
		c0.3,0.1,0.6,0.1,0.8,0.2l0,0c-0.2-0.2-0.3-0.4-0.5-0.6l-2.8-3l0.8-0.7L81.9,80.3z"/>
	<path d="M68.8,84.7l-0.7,0.8c-0.6-0.6-1.5-0.8-2.5-0.3c-0.9,0.4-1.3,0.9-1,1.5c0.2,0.5,0.7,0.6,1.4,0.4l1.3-0.4
		c1.2-0.3,2-0.1,2.4,0.9c0.5,1-0.2,2.1-1.7,2.8c-1.3,0.6-2.5,0.5-3.3-0.3l0.7-0.8c0.6,0.6,1.3,0.7,2.3,0.3c0.8-0.4,1.2-0.9,1-1.4
		c-0.2-0.5-0.6-0.6-1.4-0.3L66,88c-1.3,0.3-2.1,0.2-2.5-0.8c-0.5-1.1,0.1-2.2,1.7-2.9C66.8,83.6,68,83.8,68.8,84.7z"/>
	<path d="M63.2,88.8c0.5,1.9-0.5,3.5-2.5,4c-2,0.5-3.6-0.4-4.1-2.4c-0.5-1.9,0.5-3.5,2.5-4C61,85.9,62.7,86.9,63.2,88.8z M57.7,90.1
		c0.3,1.4,1.4,2.1,2.7,1.7c1.3-0.3,1.9-1.4,1.6-2.8c-0.3-1.4-1.4-2.1-2.7-1.7C58,87.7,57.3,88.8,57.7,90.1z"/>
	<path d="M54.1,93.8l-0.2-3.7c-0.1-1-0.7-1.7-1.8-1.6c-1.1,0.1-1.7,0.8-1.7,1.8l0.2,3.7L49.4,94l-0.2-3.8c-0.1-1.5,0.9-2.7,2.8-2.8
		s3,0.9,3.1,2.5l0.2,3.8L54.1,93.8z"/>
	<path d="M47,93.9l-1.4-0.2l-2.4-4.5c-0.1-0.3-0.2-0.5-0.3-0.8l0,0c0,0.2-0.1,0.5-0.1,0.8l-0.5,4l-1.1-0.1L42,87l1.3,0.2l2.5,4.5
		c0.1,0.3,0.2,0.5,0.3,0.8l0,0c0-0.2,0.1-0.5,0.1-0.8l0.5-4l1.1,0.1L47,93.9z"/>
	<path d="M38.7,92.5L36,91.6c-1.9-0.6-2.8-2.2-2.2-3.9c0.6-1.8,2.3-2.6,4.2-1.9l2.7,0.9L38.7,92.5z M37.7,86.6
		c-1.3-0.4-2.3,0.2-2.7,1.4c-0.4,1.3,0.1,2.3,1.4,2.7l1.5,0.5l1.4-4.2L37.7,86.6z"/>
	<path d="M30.3,85.9c-1.1,1.7-3,2-4.7,0.8c-1.7-1.1-2.1-3-1-4.6c1.1-1.7,3-2,4.7-0.8C31,82.4,31.4,84.2,30.3,85.9z M25.6,82.8
		c-0.8,1.2-0.6,2.4,0.5,3.2c1.1,0.7,2.3,0.5,3.1-0.7c0.8-1.2,0.6-2.4-0.5-3.2C27.6,81.3,26.4,81.6,25.6,82.8z"/>
	<path d="M21.3,83.4l-1-1l0.7-5c0.1-0.3,0.1-0.6,0.2-0.8l0,0c-0.2,0.2-0.3,0.4-0.6,0.6L17.9,80l-0.8-0.8l4.4-4.4l0.9,0.9l-0.7,5.1
		c-0.1,0.3-0.1,0.6-0.2,0.8l0,0c0.2-0.2,0.3-0.4,0.6-0.6l2.9-2.9l0.8,0.8L21.3,83.4z"/>
	<path d="M14.9,68.1l-0.8-0.8c0.6-0.6,0.8-1.4,0.4-2.5c-0.4-0.9-0.8-1.3-1.4-1.1c-0.5,0.2-0.6,0.6-0.4,1.4l0.3,1.3
		c0.3,1.2,0.1,2-0.9,2.4c-1,0.4-2.1-0.2-2.7-1.7c-0.6-1.3-0.5-2.5,0.3-3.3l0.8,0.7c-0.6,0.6-0.7,1.3-0.3,2.3c0.3,0.8,0.8,1.2,1.3,1
		c0.5-0.2,0.6-0.6,0.4-1.4l-0.3-1.3c-0.3-1.3-0.1-2.1,0.9-2.5c1.1-0.5,2.2,0.1,2.9,1.8C16,66.1,15.8,67.3,14.9,68.1z"/>
	<path d="M10.9,62.3c-2,0.4-3.5-0.6-4-2.6c-0.5-2,0.5-3.6,2.5-4.1c2-0.4,3.5,0.6,4,2.6C13.8,60.3,12.9,61.9,10.9,62.3z M9.7,56.8
		c-1.4,0.3-2.1,1.3-1.8,2.6c0.3,1.3,1.4,1.9,2.8,1.6c1.4-0.3,2.1-1.3,1.8-2.7C12.2,57.1,11.1,56.5,9.7,56.8z"/>
	<path d="M6.2,53.2l3.7-0.1c1,0,1.7-0.7,1.6-1.8c0-1.1-0.8-1.7-1.8-1.7l-3.7,0.1l0-1.2l3.8-0.1c1.5-0.1,2.6,1,2.7,2.9
		c0.1,1.9-1,3-2.5,3l-3.8,0.1L6.2,53.2z"/>
	<path d="M6.2,46.1l0.2-1.3l4.5-2.3c0.3-0.1,0.5-0.2,0.8-0.3l0,0c-0.2,0-0.5-0.1-0.8-0.1l-4-0.6l0.2-1.1l6.1,1L13,42.5l-4.6,2.4
		c-0.3,0.1-0.5,0.2-0.8,0.3l0,0c0.2,0,0.5,0.1,0.8,0.1l4,0.6l-0.2,1.1L6.2,46.1z"/>
	<path d="M7.7,37.8l1-2.7c0.7-1.9,2.2-2.7,4-2.1c1.8,0.6,2.5,2.3,1.8,4.2l-1,2.7L7.7,37.8z M13.7,36.9c0.5-1.3-0.1-2.3-1.4-2.8
		c-1.2-0.4-2.3,0-2.8,1.3L9,36.9l4.1,1.5L13.7,36.9z"/>
	<path d="M14.5,29.6c-1.6-1.1-1.9-3-0.7-4.7c1.2-1.7,3-2.1,4.7-0.9c1.6,1.1,1.9,3,0.7,4.7C18,30.3,16.2,30.7,14.5,29.6z M17.7,24.9
		c-1.2-0.8-2.4-0.6-3.2,0.5c-0.8,1.1-0.5,2.3,0.7,3.1c1.2,0.8,2.4,0.6,3.2-0.5C19.2,27,18.9,25.7,17.7,24.9z"/>
	<path d="M17.3,20.6l1-1l5,0.8c0.3,0.1,0.6,0.1,0.8,0.2l0,0c-0.2-0.2-0.4-0.4-0.6-0.6l-2.8-2.9l0.8-0.8l4.3,4.5l-0.9,0.9L19.8,21
		c-0.3-0.1-0.6-0.1-0.8-0.2l0,0c0.2,0.2,0.3,0.3,0.6,0.6l2.8,2.9l-0.8,0.8L17.3,20.6z"/>
</g>
</svg>
